<svg xmlns="http://www.w3.org/2000/svg" xmlns:xlink="http://www.w3.org/1999/xlink" viewBox="0 0 370 370"><defs><style>.cls-1{isolation:isolate;}.cls-2{fill:none;stroke:url(#Degradado_sin_nombre_342);}.cls-2,.cls-3,.cls-4{stroke-miterlimit:10;}.cls-2,.cls-3{stroke-width:36px;}.cls-3{stroke:#fff;fill:url(#Degradado_sin_nombre_8);}.cls-4{stroke-width:30px;mix-blend-mode:luminosity;fill:url(#Degradado_sin_nombre_409);stroke:url(#Degradado_sin_nombre_451);}</style><linearGradient id="Degradado_sin_nombre_342" x1="73.53" y1="253.89" x2="304.72" y2="338.04" gradientUnits="userSpaceOnUse"><stop offset="0.2" stop-color="#fff"/><stop offset="0.51" stop-color="#fff" stop-opacity="0.8"/><stop offset="1" stop-color="#fff" stop-opacity="0.6"/></linearGradient><radialGradient id="Degradado_sin_nombre_8" cx="344.28" cy="310.3" r="127.24" gradientTransform="translate(44.76 -208.26) scale(0.83 1.63)" gradientUnits="userSpaceOnUse"><stop offset="0" stop-color="#0098cd" stop-opacity="0"/><stop offset="1" stop-color="#0098cd" stop-opacity="0"/><stop offset="1" stop-color="#0098cd"/></radialGradient><radialGradient id="Degradado_sin_nombre_409" cx="256.03" cy="255.97" r="210.65" gradientTransform="translate(49.38 49.43) scale(0.81 0.81)" gradientUnits="userSpaceOnUse"><stop offset="0" stop-color="#fff" stop-opacity="0.1"/><stop offset="0" stop-color="#fff" stop-opacity="0"/></radialGradient><radialGradient id="Degradado_sin_nombre_451" cx="256.03" cy="255.97" r="225.65" gradientTransform="translate(49.38 49.43) scale(0.81 0.81)" gradientUnits="userSpaceOnUse"><stop offset="0.95" stop-color="#fff"/><stop offset="1" stop-color="#fff"/><stop offset="1" stop-color="#fff" stop-opacity="0.85"/></radialGradient></defs><g class="cls-1"><g id="Fycho"><path class="cls-2" d="M254.81,426c-.69-43.86-6.42-88.35-22.3-129.47-13.94-36.09-36-68.47-66.29-92.79-17.2-13.83-37-26.66-59.42-29.39" transform="translate(-71 -71)"/><path class="cls-3" d="M253.81,426c0-43.9,7.21-87.91,23.32-128.89,13.87-35.27,33.79-69,63.23-93.63,18.95-15.88,38.95-27,63.53-31.35" transform="translate(-71 -71)"/><path class="cls-4" d="M426,256A170,170,0,0,1,256,426a173.5,173.5,0,0,1-18.77-1A170,170,0,1,1,426,256Z" transform="translate(-71 -71)"/></g></g></svg>